<svg id="Capa_1" data-name="Capa 1" xmlns="http://www.w3.org/2000/svg" viewBox="0 0 418 302"><defs><style>.cls-1{fill:#002f87;}.cls-2{fill:#c6c0b8;}</style></defs><title>Logo ABC</title><path class="cls-1" d="M103.36,230.5H83.07l10.22-24.58Zm1.49,3.9,4.47,10.83a10.67,10.67,0,0,1,1,4.27c0,3.42-5,3.42-7.89,3.42v2h32.51v-2c-5.67,0-8.11-6.7-10-11.37l-24.63-59.91h-1l-23.41,56.1c-2.41,5.74-5.35,14.65-12.26,15.18v2H86v-2c-5.06-.3-8.91-.77-8.91-5.95,0-2.06.93-4.22,1.91-6.84l2.36-5.73Z"/><path class="cls-1" d="M196.65,187.29h2.84c13.18,0,14.4,10.72,14.4,14,0,9-4.87,14.17-17.24,14.17Zm0,32.28h3c15.51,0,16.49,11.91,16.49,16.28,0,8.61-5.53,14.93-13.86,14.93-4.65,0-5.68-1.85-5.68-6.84Zm-15.58,21.76c0,8.77,0,11.58-9.55,11.58v2h33c24.11,0,29.48-12.11,29.48-19.48,0-12.12-9.42-16.45-19-18.41v-.23c7.41-1.82,15.43-5.84,15.43-15.81,0-2.17,0-17.75-23.73-17.75H171.52v1.94c9.55,0,9.55,2.82,9.55,11.59Z"/><path class="cls-1" d="M338.53,206.36h-1.85c-2.11-11.27-10.72-20.16-21.76-20.16-13.39,0-22.2,12.78-22.2,32,0,23.91,8.62,33.36,22.09,33.36,9.82,0,16.51-5.39,22.61-13.09v6.15C330,253,322,256.49,311.24,256.49c-22.07,0-36.32-15.25-36.32-36.17,0-21.44,16.68-38.8,36.68-38.8a37.74,37.74,0,0,1,15,3.27c1.49.65,4.18,2,5.87,2,2.66,0,3.94-2.7,4.24-5.22h1.85Z"/><path class="cls-1" d="M254.51,132.66a3.48,3.48,0,0,1-.79.67l-5.36,3.38H247l5.12-5.15a5.21,5.21,0,0,1,.68-.56,1.48,1.48,0,0,1,.86-.29,1.2,1.2,0,0,1,.81.32,1,1,0,0,1,.37.82A1.16,1.16,0,0,1,254.51,132.66Z"/><path class="cls-1" d="M75.86,138.19a18.31,18.31,0,0,0,2.33.92,1.15,1.15,0,0,0,1-.6,2.6,2.6,0,0,0,.45-1.23h1v9.33h-.86a22.57,22.57,0,0,0-2.4-4.79c-1.56-2.13-3.32-3.23-5.28-3.23-2.2,0-3.77,1.16-4.7,3.5A25.69,25.69,0,0,0,66,151.4a25.43,25.43,0,0,0,.79,7.07c1,3.46,2.89,5.2,5.66,5.2a7.42,7.42,0,0,0,4.71-1.73,20,20,0,0,0,3-3.16l1,1a19.75,19.75,0,0,1-3.37,3.79A8.93,8.93,0,0,1,72,165.61a10.83,10.83,0,0,1-8.18-3.5c-2.39-2.6-3.63-6.07-3.63-10.48a15.67,15.67,0,0,1,3.49-10.57,10.21,10.21,0,0,1,8-3.78,10.34,10.34,0,0,1,4.17.91"/><path class="cls-1" d="M83.12,164.8v-1a3.74,3.74,0,0,0,2-.46A2.71,2.71,0,0,0,86,161V141.54a2.65,2.65,0,0,0-.93-2.36,4.36,4.36,0,0,0-2-.45v-1h19v8.08h-.84c-.41-2.61-1.13-4.36-2.14-5.3s-2.8-1.44-5.46-1.44a3,3,0,0,0-1.93.39A2,2,0,0,0,91.3,141v9.32c1.91,0,3.18-.37,3.84-1.2a10.49,10.49,0,0,0,1.54-4.64h.84V157.8h-.84a9.58,9.58,0,0,0-1.44-4.8c-.75-.92-2-1.39-3.94-1.39v9.7a2.24,2.24,0,0,0,.53,1.74,3.81,3.81,0,0,0,2.24.45A8.44,8.44,0,0,0,99.23,162c1.32-1,2.51-2.85,3.56-5.57h.91l-1.33,8.35Z"/><path class="cls-1" d="M105,163.78c1.23,0,2-.31,2.32-.84a4.2,4.2,0,0,0,.52-2.36v-19c-1-1.36-1.6-2.16-1.82-2.42a1.6,1.6,0,0,0-1-.45v-1H112l11.31,16.81h.15V142.64a5.36,5.36,0,0,0-.59-2.89,3.15,3.15,0,0,0-2.4-1v-1h7v1a4,4,0,0,0-2,.85,3.61,3.61,0,0,0-.51,2.37v23.68h-.91l-14.5-21.53h-.2v15.76a6,6,0,0,0,.4,2.61,2.92,2.92,0,0,0,2.68,1.32v1H105Z"/><path class="cls-1" d="M129.11,137.71h19.63v8.08h-.93c-.34-2.88-1.23-4.85-2.65-5.86a6.87,6.87,0,0,0-3.64-.94v21.12a4.72,4.72,0,0,0,.61,2.93,3.39,3.39,0,0,0,2.61.73v1H133.06v-1a3.41,3.41,0,0,0,2.6-.73,4.7,4.7,0,0,0,.63-2.93V139a6.89,6.89,0,0,0-3.64.94c-1.57,1-2.46,3-2.64,5.86h-.94Z"/><path class="cls-1" d="M158.78,151V140.78a1.84,1.84,0,0,1,.41-1.32,2.59,2.59,0,0,1,1.74-.41,3.4,3.4,0,0,1,3.37,2.28,10.18,10.18,0,0,1,.55,3.71c0,2.52-.49,4.15-1.39,4.85a8.27,8.27,0,0,1-4.68,1.12M150.6,164.8h11v-1a2.87,2.87,0,0,1-2.27-.81,4.85,4.85,0,0,1-.56-2.84v-7.85h.93l6.79,12.52h6.72v-1a1.82,1.82,0,0,1-.77-.19,1.36,1.36,0,0,1-.59-.58l-6.17-11.37a6.1,6.1,0,0,0,2.92-1.81,7.07,7.07,0,0,0,1.85-5.15,6.14,6.14,0,0,0-4-6.12,14.26,14.26,0,0,0-5.3-.85H150.6v1a3.65,3.65,0,0,1,2.13.64c.47.46.72,1.47.72,3v17.75a4.86,4.86,0,0,1-.6,2.92,3.27,3.27,0,0,1-2.25.73Z"/><path class="cls-1" d="M186.52,164.3c-2.5,0-4.18-1.79-5.1-5.35a31.19,31.19,0,0,1-.73-7.56,31.67,31.67,0,0,1,.72-7.53c.9-3.6,2.61-5.42,5.11-5.42,1.76,0,3.19,1.1,4.22,3.25s1.56,5.4,1.56,9.7a34.23,34.23,0,0,1-.71,7.56c-.94,3.56-2.62,5.35-5.07,5.35m0-27.2a10.29,10.29,0,0,0-8.44,4.13,15.94,15.94,0,0,0-3.22,10.34,15.42,15.42,0,0,0,3.09,9.75,10.66,10.66,0,0,0,16.81.38,17.55,17.55,0,0,0,0-20.68,10.38,10.38,0,0,0-8.24-3.92"/><path class="cls-1" d="M207.83,163.78c1.24,0,2-.28,2.43-.82a4.22,4.22,0,0,0,.56-2.38V141.53a2.76,2.76,0,0,0-.61-2.13,4.05,4.05,0,0,0-2.22-.68v-1h8.24l6.46,18.56h.3l6.39-18.56h8.25v1a3.72,3.72,0,0,0-2.24.74c-.41.41-.6,1.37-.6,2.93v17.73a4.79,4.79,0,0,0,.6,2.92,3.08,3.08,0,0,0,2.24.74v1H226.78v-1a4.18,4.18,0,0,0,2.21-.58,2.89,2.89,0,0,0,.73-2.34V141.24h-.24l-8.06,23.56h-.89l-8.16-23.19-.15,0v18.19a5.2,5.2,0,0,0,.62,2.91c.41.63,1.28,1,2.67,1v1h-7.68Z"/><path class="cls-1" d="M238.86,164.8v-1a4,4,0,0,0,2-.46,2.73,2.73,0,0,0,.9-2.37V141.54a2.6,2.6,0,0,0-.94-2.36,4.21,4.21,0,0,0-2-.45v-1h19v8.08H257c-.44-2.61-1.12-4.36-2.13-5.3s-2.83-1.44-5.49-1.44a3.07,3.07,0,0,0-1.92.39,2,2,0,0,0-.4,1.52v9.32c1.88,0,3.18-.37,3.85-1.2a10.63,10.63,0,0,0,1.53-4.64h.83V157.8h-.83A9.67,9.67,0,0,0,251,153c-.73-.92-2.05-1.39-3.93-1.39v9.7a2.13,2.13,0,0,0,.55,1.74,3.63,3.63,0,0,0,2.22.45A8.45,8.45,0,0,0,255,162c1.33-1,2.52-2.85,3.55-5.57h.92l-1.31,8.35Z"/><path class="cls-1" d="M268.77,161.14V141.39a3.83,3.83,0,0,1,.25-1.67c.26-.46.81-.67,1.65-.67,2.58,0,4.45,1.63,5.55,4.91a23.17,23.17,0,0,1,1,7.32c0,4.75-.64,8-1.88,9.66a5.75,5.75,0,0,1-4.81,2.51c-.7,0-1.17-.16-1.39-.57a3.78,3.78,0,0,1-.37-1.74m-8,3.66h10.37a10.66,10.66,0,0,0,8.94-4.29,14.55,14.55,0,0,0,2.93-9.18q0-6.06-2.93-9.66c-2.09-2.64-5.2-4-9.26-4h-10v1a4.31,4.31,0,0,1,1.85.48,2.44,2.44,0,0,1,.91,2.2v19.73a2.4,2.4,0,0,1-1,2.21,3.77,3.77,0,0,1-1.78.43Z"/><path class="cls-1" d="M284.5,163.78a4.19,4.19,0,0,0,2-.4,2.62,2.62,0,0,0,1-2.42V141.53a2.58,2.58,0,0,0-.95-2.36,4.33,4.33,0,0,0-2.05-.45v-1H296v1a5.36,5.36,0,0,0-2.13.42,2.62,2.62,0,0,0-1,2.39V161a2.58,2.58,0,0,0,.8,2.25,3.68,3.68,0,0,0,2.29.57v1H284.5Z"/><path class="cls-1" d="M313.63,138.19a14.45,14.45,0,0,0,2.35.92,1.11,1.11,0,0,0,1-.6,3.18,3.18,0,0,0,.49-1.23h.92v9.33h-.84a22.94,22.94,0,0,0-2.44-4.79c-1.55-2.13-3.3-3.23-5.27-3.23-2.2,0-3.74,1.16-4.68,3.5a25.21,25.21,0,0,0-1.38,9.31,26.67,26.67,0,0,0,.78,7.07c1,3.46,2.92,5.2,5.67,5.2a7.39,7.39,0,0,0,4.72-1.73,19.17,19.17,0,0,0,2.95-3.16l1,1a18.49,18.49,0,0,1-3.39,3.79,8.87,8.87,0,0,1-5.75,2.08,10.74,10.74,0,0,1-8.17-3.5c-2.44-2.6-3.62-6.07-3.62-10.48s1.13-7.86,3.46-10.57a10.32,10.32,0,0,1,12.22-2.87"/><path class="cls-1" d="M333.17,164.3c-2.49,0-4.18-1.79-5.11-5.35a32.78,32.78,0,0,1-.73-7.56,32.27,32.27,0,0,1,.71-7.53c.92-3.6,2.64-5.42,5.13-5.42,1.77,0,3.19,1.1,4.25,3.25s1.53,5.4,1.53,9.7a31.82,31.82,0,0,1-.73,7.56c-.92,3.56-2.63,5.35-5.05,5.35m0-27.2a10.38,10.38,0,0,0-8.46,4.13,16.22,16.22,0,0,0-3.2,10.34,15.36,15.36,0,0,0,3.08,9.75,10.67,10.67,0,0,0,16.82.38,17.51,17.51,0,0,0,0-20.68,10.38,10.38,0,0,0-8.24-3.92"/><path class="cls-2" d="M216,86.84c7.38,3.86,16.3,8.91,19.07,12.24a15.79,15.79,0,0,1,4.26,9.6c.13,3.78-1.08,6-2.67,8.89H223.26s4.79-5.84-4.45-11c0,0-30.17-15.89-43.84-22.91,0,0-19.84-8.67-18-24.55,0,0,1.06-20.44,31.23-22.83,0,0,5.92-.74,5.92,6.87,0,0-.8,12-9.52,12.46,0,0-8.65,0-8.94,5.42,0,0-.62,4.66,7.69,9,0,0,.47.28,1.33.7Z"/><path class="cls-2" d="M199.85,100.44l6.19,3.21-.57,12s.05,1.89-1.56,1.89h-1.73a1.71,1.71,0,0,1-1.66-1.89Z"/><polygon class="cls-2" points="206.25 78.22 199.55 74.9 196.9 35.72 209.07 35.72 206.25 78.22"/><path class="cls-2" d="M167.41,120.86s2.72,5.16,7.47,6.76H60.54v-6.68Z"/><path class="cls-2" d="M213.29,26.43c0,3.35-4.56,6.07-10.25,6.07s-10.4-2.72-10.4-6.07,4.65-6.06,10.4-6.06,10.25,2.71,10.25,6.06"/><path class="cls-2" d="M185.11,127.63H344.38v-6.79H190.53c-5.42,0-7.24-3.76-7.24-3.76s-3.75-5.87,3.76-10.49c0,0,4.5-3,11.54-6.7l-16.36-8.6c-4.58,2.36-14.07,9.52-14.07,18.1,0,0-.67,18.24,17,18.24"/><path class="cls-2" d="M207.63,78.82c3.61-2.18,14.91-8.81,14.91-8.81,8.34-4.3,7.67-9,7.67-9-.25-5.42-8.91-5.42-8.91-5.42-8.7-.41-9.48-12.45-9.48-12.45,0-7.63,5.87-6.87,5.87-6.87,30.2,2.38,31.22,22.83,31.22,22.83,1.87,15.86-18,24.53-18,24.53-2.1,1.1-4.89,2.25-7.64,3.63Z"/><rect class="cls-2" x="60.62" y="169.39" width="283.7" height="6.78"/><rect class="cls-2" x="60.62" y="261.68" width="283.7" height="13.66"/><path class="cls-2" d="M356.74,264.9a3.33,3.33,0,0,1,1.82.38,1.34,1.34,0,0,1,.6,1.22,1.28,1.28,0,0,1-.55,1.16,3.16,3.16,0,0,1-1.75.4h-1.42V264.9Zm-3.45,8.64h2.15v-4.2H357l2,4.2h2.39L359.14,269a2.79,2.79,0,0,0,1.64-.93,2.83,2.83,0,0,0,.58-1.84,2.27,2.27,0,0,0-1.11-2,6,6,0,0,0-3.12-.68h-3.84Zm6.57-11.83a7.85,7.85,0,0,1,2.53,1.69,7.59,7.59,0,0,1,1.59,2.47,8,8,0,0,1,.55,3,7.07,7.07,0,0,1-.58,2.84,7.52,7.52,0,0,1-1.64,2.41,7.88,7.88,0,0,1-5.51,2.23,7,7,0,0,1-2.79-.59,7.74,7.74,0,0,1-2.45-1.69,7.14,7.14,0,0,1-1.64-2.45,7.45,7.45,0,0,1-.58-2.85,7.2,7.2,0,0,1,.61-2.94,7.89,7.89,0,0,1,1.68-2.48,7.72,7.72,0,0,1,2.4-1.64,7.22,7.22,0,0,1,2.9-.53,7.42,7.42,0,0,1,2.93.56m-6.31-1.26a8.57,8.57,0,0,0-2.85,1.88,9.26,9.26,0,0,0-2,2.95,9.08,9.08,0,0,0-.67,3.44,8.46,8.46,0,0,0,.67,3.35,7.49,7.49,0,0,0,1.92,2.87,9.53,9.53,0,0,0,2.87,2,8.83,8.83,0,0,0,6.82,0,9.74,9.74,0,0,0,2.93-1.93,8.23,8.23,0,0,0,1.92-2.87,8.63,8.63,0,0,0,.67-3.43,8.89,8.89,0,0,0-.65-3.42,8.57,8.57,0,0,0-1.89-2.83,8.19,8.19,0,0,0-2.91-2,8.87,8.87,0,0,0-3.46-.7,9.13,9.13,0,0,0-3.38.66"/></svg>